<svg xmlns="http://www.w3.org/2000/svg" viewBox="0 0 512 512" width="512" height="512">
  <rect width="512" height="512" rx="112" fill="#0a0a14"/>
  <line x1="96" y1="400" x2="96" y2="176" stroke="#4c1d95" stroke-width="3.5" opacity="0.7"/>
  <line x1="96" y1="176" x2="256" y2="288" stroke="#4c1d95" stroke-width="3.5" opacity="0.7"/>
  <line x1="256" y1="288" x2="416" y2="176" stroke="#4c1d95" stroke-width="3.5" opacity="0.7"/>
  <line x1="416" y1="176" x2="416" y2="400" stroke="#4c1d95" stroke-width="3.5" opacity="0.7"/>
  <line x1="96" y1="176" x2="176" y2="128" stroke="#4c1d95" stroke-width="2" opacity="0.4"/>
  <line x1="416" y1="176" x2="336" y2="128" stroke="#4c1d95" stroke-width="2" opacity="0.4"/>
  <line x1="256" y1="288" x2="256" y2="380" stroke="#4c1d95" stroke-width="2" opacity="0.35"/>
  <circle cx="96" cy="400" r="16" fill="#6d28d9"/>
  <circle cx="416" cy="400" r="16" fill="#6d28d9"/>
  <circle cx="96" cy="176" r="22" fill="#7c3aed"/>
  <circle cx="416" cy="176" r="22" fill="#7c3aed"/>
  <circle cx="256" cy="288" r="32" fill="#7c3aed"/>
  <circle cx="256" cy="288" r="12" fill="#c4b5fd"/>
  <circle cx="176" cy="128" r="11" fill="#a78bfa" opacity="0.7"/>
  <circle cx="336" cy="128" r="11" fill="#a78bfa" opacity="0.7"/>
  <circle cx="256" cy="380" r="9" fill="#a78bfa" opacity="0.5"/>
  <circle cx="55" cy="120" r="2.5" fill="#c4b5fd" opacity="0.2"/>
  <circle cx="430" cy="440" r="2.5" fill="#c4b5fd" opacity="0.2"/>
  <circle cx="450" cy="90" r="3" fill="#c4b5fd" opacity="0.15"/>
  <circle cx="70" cy="450" r="2" fill="#c4b5fd" opacity="0.2"/>
  <circle cx="210" cy="70" r="2.5" fill="#c4b5fd" opacity="0.15"/>
  <circle cx="310" cy="455" r="2" fill="#c4b5fd" opacity="0.15"/>
</svg>
